<svg viewBox="0 0 64 64" xmlns="http://www.w3.org/2000/svg"><path d="M37.71 58.36H24a1 1 0 0 1-1-1V28.91c0-2.44 1.42-5.48 3.81-6.33a.65.65 0 0 0 .37-.61V5.62a2.39 2.39 0 0 1 2.39-2.39h2.58a2.39 2.39 0 0 1 2.39 2.39V22a.63.63 0 0 0 .37.61c2.38.85 3.81 3.89 3.81 6.33v28.42a1 1 0 0 1-1.01 1Zm-12.71-2h11.71V28.91c0-1.9-1.16-4-2.48-4.45a2.61 2.61 0 0 1-1.7-2.46V5.62a.39.39 0 0 0-.39-.39h-2.58a.38.38 0 0 0-.39.39V22a2.63 2.63 0 0 1-1.7 2.49C26.15 24.93 25 27 25 28.91Z" fill="#ffffff" class="fill-1b1c20"></path><path d="M33.18 15h-5a1 1 0 0 1 0-2h5a1 1 0 0 1 0 2ZM29.91 46.29H24.4a1 1 0 0 1 0-2h4.51v-9.77H24.4a1 1 0 0 1 0-2h5.51a1 1 0 0 1 1 1v11.77a1 1 0 0 1-1 1Z" fill="#ffffff" class="fill-1b1c20"></path><path d="M37.5 28.65a11.12 11.12 0 0 0-.5 3.41c0 5.22 3.45 9.45 7.7 9.45s7.69-4.23 7.69-9.45a11.43 11.43 0 0 0-.52-3.41Z" fill="#ffffff" class="fill-ffffff"></path><path d="M44.67 42.51c-4.8 0-8.7-4.69-8.7-10.45a12.23 12.23 0 0 1 .57-3.71 1 1 0 0 1 1-.7h14.3a1 1 0 0 1 .95.7 12.28 12.28 0 0 1 .57 3.71c0 5.76-3.9 10.45-8.69 10.45Zm-6.41-12.86a10.25 10.25 0 0 0-.26 2.41c0 4.66 3 8.45 6.7 8.45s6.69-3.79 6.69-8.45a10.25 10.25 0 0 0-.28-2.41Z" fill="#ffffff" class="fill-1b1c20"></path><path d="M50.46 58.36h-11.8a1 1 0 0 1-1-.73 1 1 0 0 1 .45-1.13l4.18-2.5V41.64a1 1 0 0 1 2 0v13a1 1 0 0 1-.49.86l-1.51.9h4.54l-1.51-.9a1 1 0 0 1-.49-.86v-13a1 1 0 0 1 2 0V54L51 56.5a1 1 0 0 1 .45 1.13 1 1 0 0 1-.99.73ZM52.15 34.52H37.07a1 1 0 0 1 0-2h15.08a1 1 0 0 1 0 2Z" fill="#ffffff" class="fill-1b1c20"></path></svg>